<?xml version="1.0" encoding="UTF-8" standalone="no"?><!-- Generator: Gravit.io --><svg xmlns="http://www.w3.org/2000/svg" xmlns:xlink="http://www.w3.org/1999/xlink" style="isolation:isolate" viewBox="0 0 120 50" width="120pt" height="50pt"><defs><clipPath id="_clipPath_ZsN5HZHGAZXJ3b2Hva6H7zCQ4SSU4leo"><rect width="120" height="50"/></clipPath></defs><g clip-path="url(#_clipPath_ZsN5HZHGAZXJ3b2Hva6H7zCQ4SSU4leo)"><path d=" M 111.889 16.726 L 106.868 10.857 C 106.792 10.768 106.638 10.675 106.524 10.649 L 97.911 8.68 C 97.797 8.654 97.61 8.633 97.493 8.633 L 96.678 8.633 L 96.678 8.633 Q 87.805 8.585 82.698 8.579 C 78.306 8.574 76.002 8.592 75.786 8.633 C 70.179 9.692 67.105 10.501 66.602 10.607 Q 66.099 10.713 65.543 11.323 L 65.543 11.323 L 60.952 16.644 L 60.952 16.644 L 56.317 11.13 C 56.167 10.951 55.86 10.762 55.632 10.708 L 46.836 8.633 L 45.81 8.633 L 45.81 8.633 Q 36.937 8.585 31.83 8.579 C 27.438 8.574 25.134 8.592 24.918 8.633 C 19.311 9.692 16.237 10.501 15.734 10.607 Q 15.231 10.713 14.675 11.323 L 14.675 11.323 L 10.014 16.726 L 8.262 16.726 C 7.776 16.974 8.012 17.512 8.597 17.406 Q 8.597 17.702 8.59 18.57 L 11.856 18.57 Q 11.869 17.772 11.869 17.406 Q 11.869 17.406 11.869 17.406 C 11.869 17.406 11.869 17.406 11.869 17.406 C 11.935 17.418 11.998 17.419 12.054 17.406 L 12.054 17.406 L 12.054 17.406 L 57.673 17.406 L 57.673 17.406 C 57.723 17.785 58.052 18.174 58.552 18.122 Q 58.552 18.372 58.552 18.558 L 63.404 18.558 Q 63.404 18.431 63.404 18.122 C 63.786 18.162 64.094 17.788 64.196 17.406 L 64.196 17.406 L 64.196 17.406 L 64.196 17.406 L 64.196 17.406 L 64.196 17.406 L 64.196 17.406 L 64.196 17.406 L 64.196 17.406 L 64.196 17.406 L 64.196 17.406 L 64.196 17.406 L 64.196 17.406 L 64.196 17.406 L 64.196 17.406 L 64.196 17.406 L 64.196 17.406 L 64.196 17.406 L 64.196 17.406 L 64.196 17.406 L 64.196 17.406 L 64.196 17.406 L 64.196 17.406 L 64.196 17.406 L 64.196 17.406 L 109.621 17.406 Q 109.621 17.702 109.613 18.557 L 113.362 18.557 Q 113.362 17.772 113.362 17.406 C 113.898 17.492 114.242 16.988 113.793 16.726 L 111.889 16.726 Z  M 66.617 16.581 L 70.75 16.588 C 70.751 16.586 70.751 16.584 70.751 16.582 C 70.749 16.563 70.745 16.541 70.734 16.525 C 70.719 16.495 70.7 16.467 70.679 16.444 C 70.679 16.442 70.679 16.442 70.679 16.442 L 66.632 11.899 C 66.632 11.899 66.632 11.899 66.632 11.899 C 66.609 11.872 66.583 11.848 66.554 11.829 C 66.539 11.819 66.522 11.812 66.505 11.812 C 66.49 11.815 66.475 11.823 66.469 11.836 C 66.45 11.878 66.441 11.923 66.443 11.969 C 66.443 11.969 66.443 11.971 66.443 11.971 L 66.443 16.266 C 66.443 16.364 66.482 16.459 66.551 16.529 C 66.571 16.549 66.593 16.566 66.617 16.581 L 66.617 16.581 L 66.617 16.581 Z  M 62.832 16.576 L 65.967 16.58 C 66.045 16.569 66.119 16.533 66.177 16.476 C 66.246 16.408 66.285 16.313 66.285 16.215 C 66.285 16.215 66.285 16.215 66.285 16.215 L 66.285 11.861 C 66.285 11.859 66.285 11.859 66.285 11.857 C 66.287 11.812 66.278 11.766 66.257 11.726 C 66.251 11.711 66.236 11.7 66.219 11.7 C 66.202 11.7 66.183 11.707 66.168 11.717 C 66.138 11.734 66.113 11.757 66.09 11.783 C 66.088 11.783 66.088 11.783 66.088 11.785 L 61.846 16.351 C 61.846 16.351 61.846 16.353 61.846 16.353 C 61.822 16.376 61.803 16.404 61.788 16.433 C 61.778 16.45 61.774 16.469 61.772 16.491 C 61.774 16.512 61.784 16.531 61.803 16.544 C 61.846 16.567 61.892 16.577 61.941 16.573 C 61.941 16.573 61.943 16.573 61.943 16.573 L 62.832 16.576 L 62.832 16.576 Z  M 22.988 16.593 L 20.74 16.589 C 20.712 16.584 20.686 16.573 20.662 16.558 C 20.637 16.537 20.62 16.505 20.62 16.472 C 20.624 16.421 20.641 16.372 20.671 16.332 C 20.673 16.33 20.673 16.33 20.673 16.33 L 24.944 9.947 C 24.944 9.947 24.944 9.947 24.944 9.947 C 24.963 9.915 24.989 9.885 25.016 9.86 C 25.025 9.851 25.035 9.845 25.048 9.843 C 25.055 9.845 25.061 9.851 25.061 9.858 C 25.078 9.898 25.084 9.942 25.082 9.987 C 25.082 9.987 25.082 9.989 25.082 9.989 L 25.082 16.217 C 25.082 16.315 25.044 16.41 24.974 16.48 C 24.904 16.55 24.809 16.588 24.711 16.588 L 22.988 16.593 L 22.988 16.593 L 22.988 16.593 L 22.988 16.593 L 22.988 16.593 L 22.988 16.593 L 22.988 16.593 L 22.988 16.593 L 22.988 16.593 L 22.988 16.593 L 22.988 16.593 L 22.988 16.593 L 22.988 16.593 L 22.988 16.593 L 22.988 16.593 L 22.988 16.593 L 22.988 16.593 L 22.988 16.593 L 22.988 16.593 L 22.988 16.593 L 22.988 16.593 L 22.988 16.593 L 22.988 16.593 L 22.988 16.593 L 22.988 16.593 L 22.988 16.593 L 22.988 16.593 L 22.988 16.593 L 22.988 16.593 L 22.988 16.593 L 22.988 16.593 L 22.988 16.593 L 22.988 16.593 Z  M 75.641 9.57 L 71.352 15.944 C 71.352 15.944 71.352 15.944 71.352 15.946 C 71.331 15.978 71.308 16.006 71.278 16.031 C 71.27 16.04 71.259 16.046 71.247 16.048 C 71.24 16.046 71.236 16.04 71.234 16.033 C 71.217 15.993 71.211 15.948 71.213 15.904 C 71.213 15.904 71.213 15.902 71.213 15.902 L 71.213 10.582 C 71.215 10.476 71.253 10.374 71.323 10.294 C 71.388 10.209 71.482 10.152 71.585 10.131 L 75.514 9.379 C 75.514 9.379 75.514 9.379 75.514 9.379 C 75.541 9.375 75.567 9.371 75.592 9.371 C 75.622 9.368 75.649 9.377 75.675 9.392 C 75.688 9.402 75.694 9.417 75.694 9.434 C 75.69 9.483 75.673 9.529 75.643 9.568 C 75.641 9.568 75.641 9.57 75.641 9.57 L 75.641 9.57 L 75.641 9.57 L 75.641 9.57 L 75.641 9.57 L 75.641 9.57 Z  M 73.857 16.593 L 71.608 16.589 C 71.58 16.584 71.554 16.573 71.53 16.558 C 71.505 16.537 71.488 16.505 71.488 16.472 C 71.492 16.421 71.509 16.372 71.539 16.332 C 71.541 16.33 71.541 16.33 71.541 16.33 L 75.813 9.947 C 75.813 9.947 75.813 9.947 75.813 9.947 C 75.832 9.915 75.857 9.885 75.885 9.86 C 75.893 9.851 75.904 9.845 75.916 9.843 C 75.923 9.845 75.929 9.851 75.929 9.858 C 75.946 9.898 75.952 9.942 75.95 9.987 C 75.95 9.987 75.95 9.989 75.95 9.989 L 75.95 16.217 C 75.95 16.315 75.912 16.41 75.842 16.48 C 75.772 16.55 75.677 16.588 75.58 16.588 L 73.857 16.593 L 73.857 16.593 L 73.857 16.593 L 73.857 16.593 L 73.857 16.593 L 73.857 16.593 Z  M 80.65 16.603 L 80.851 16.604 C 80.887 16.599 80.922 16.587 80.952 16.567 C 80.976 16.55 80.991 16.52 80.991 16.491 C 80.988 16.44 80.969 16.389 80.938 16.349 C 80.938 16.349 80.935 16.349 80.935 16.347 L 76.463 10.036 C 76.463 10.033 76.463 10.033 76.463 10.033 C 76.442 10.002 76.416 9.974 76.389 9.951 C 76.378 9.942 76.365 9.936 76.353 9.934 C 76.344 9.936 76.338 9.942 76.336 9.951 C 76.319 9.991 76.312 10.036 76.314 10.078 C 76.314 10.08 76.314 10.08 76.314 10.082 L 76.314 16.184 C 76.314 16.283 76.353 16.376 76.422 16.448 C 76.492 16.518 76.588 16.558 76.685 16.558 L 80.65 16.603 L 80.65 16.603 L 80.65 16.603 L 80.65 16.603 L 80.65 16.603 L 80.65 16.603 L 80.65 16.603 Z  M 83.894 16.608 L 86.449 16.612 C 86.506 16.597 86.557 16.566 86.598 16.525 C 86.668 16.455 86.706 16.361 86.706 16.266 C 86.706 16.266 86.706 16.266 86.706 16.266 L 86.706 10.082 C 86.706 10.08 86.706 10.08 86.706 10.078 C 86.709 10.036 86.702 9.991 86.685 9.951 C 86.683 9.942 86.677 9.936 86.668 9.934 C 86.656 9.936 86.643 9.942 86.634 9.951 C 86.605 9.976 86.582 10.004 86.56 10.033 C 86.56 10.033 86.56 10.036 86.558 10.036 L 82.136 16.325 C 82.136 16.325 82.136 16.325 82.136 16.328 C 82.105 16.368 82.085 16.416 82.081 16.469 C 82.081 16.501 82.098 16.531 82.124 16.552 C 82.168 16.58 82.219 16.594 82.272 16.592 C 82.272 16.592 82.274 16.592 82.274 16.592 L 83.894 16.608 L 83.894 16.608 L 83.894 16.608 L 83.894 16.608 L 83.894 16.608 L 83.894 16.608 L 83.894 16.608 L 83.894 16.608 L 83.894 16.608 L 83.894 16.608 Z  M 81.459 9.119 L 81.465 9.119 L 81.465 9.119 L 81.465 9.119 C 81.464 9.12 81.464 9.122 81.464 9.124 C 81.463 9.122 81.461 9.12 81.459 9.119 L 81.459 9.119 L 81.459 9.119 L 81.459 9.119 L 81.459 9.119 L 81.459 9.119 L 81.459 9.119 L 81.459 9.119 Z  M 40.942 16.621 L 36.476 16.614 C 36.414 16.599 36.357 16.566 36.311 16.52 C 36.241 16.45 36.203 16.355 36.203 16.258 L 36.203 10.082 C 36.203 10.08 36.203 10.08 36.203 10.078 C 36.201 10.036 36.207 9.991 36.224 9.951 C 36.228 9.942 36.234 9.936 36.243 9.934 C 36.258 9.934 36.27 9.94 36.281 9.951 C 36.309 9.974 36.334 10 36.355 10.031 C 36.355 10.031 36.355 10.031 36.355 10.031 L 40.97 16.378 C 40.97 16.378 40.972 16.378 40.972 16.38 C 41.006 16.421 41.025 16.469 41.027 16.52 C 41.027 16.552 41.012 16.58 40.989 16.599 C 40.974 16.608 40.958 16.616 40.942 16.621 L 40.942 16.621 L 40.942 16.621 L 40.942 16.621 L 40.942 16.621 L 40.942 16.621 L 40.942 16.621 L 40.942 16.621 L 40.942 16.621 L 40.942 16.621 L 40.942 16.621 L 40.942 16.621 L 40.942 16.621 L 40.942 16.621 L 40.942 16.621 L 40.942 16.621 L 40.942 16.621 L 40.942 16.621 L 40.942 16.621 L 40.942 16.621 L 40.942 16.621 L 40.942 16.621 L 40.942 16.621 L 40.942 16.621 L 40.942 16.621 L 40.942 16.621 L 40.942 16.621 L 40.942 16.621 L 40.942 16.621 L 40.942 16.621 L 40.942 16.621 L 40.942 16.621 L 40.942 16.621 L 40.942 16.621 L 40.942 16.621 L 40.942 16.621 L 40.942 16.621 L 40.942 16.621 Z  M 52.08 16.33 L 55.513 12.062 C 55.513 12.062 55.513 12.06 55.513 12.06 C 55.545 12.02 55.583 11.982 55.625 11.952 C 55.644 11.935 55.669 11.927 55.695 11.925 C 55.716 11.927 55.735 11.939 55.744 11.961 C 55.769 12.016 55.78 12.077 55.775 12.136 C 55.775 12.136 55.775 12.139 55.775 12.139 L 55.775 12.158 L 55.695 16.228 C 55.695 16.228 55.695 16.228 55.695 16.228 C 55.693 16.325 55.653 16.419 55.583 16.488 C 55.513 16.556 55.417 16.597 55.318 16.597 L 55.316 16.597 L 52.196 16.575 C 52.196 16.575 52.194 16.575 52.194 16.575 C 52.143 16.577 52.095 16.567 52.05 16.539 C 52.029 16.525 52.016 16.499 52.014 16.474 C 52.018 16.421 52.042 16.37 52.078 16.332 C 52.078 16.332 52.078 16.33 52.08 16.33 L 52.08 16.33 L 52.08 16.33 L 52.08 16.33 L 52.08 16.33 L 52.08 16.33 L 52.08 16.33 L 52.08 16.33 L 52.08 16.33 L 52.08 16.33 L 52.08 16.33 L 52.08 16.33 L 52.08 16.33 L 52.08 16.33 L 52.08 16.33 L 52.08 16.33 L 52.08 16.33 L 52.08 16.33 L 52.08 16.33 L 52.08 16.33 L 52.08 16.33 L 52.08 16.33 L 52.08 16.33 L 52.08 16.33 L 52.08 16.33 L 52.08 16.33 L 52.08 16.33 L 52.08 16.33 L 52.08 16.33 L 52.08 16.33 L 52.08 16.33 L 52.08 16.33 L 52.08 16.33 L 52.08 16.33 L 52.08 16.33 L 52.08 16.33 L 52.08 16.33 L 52.08 16.33 L 52.08 16.33 L 52.08 16.33 L 52.08 16.33 L 52.08 16.33 L 52.08 16.33 L 52.08 16.33 L 52.08 16.33 L 52.08 16.33 Z  M 92.737 16.622 L 94.504 16.625 L 97.124 16.592 C 97.221 16.592 97.317 16.552 97.387 16.482 C 97.456 16.412 97.495 16.317 97.495 16.217 L 97.495 10.082 C 97.495 10.08 97.495 10.08 97.495 10.078 C 97.497 10.036 97.49 9.991 97.473 9.951 C 97.469 9.942 97.463 9.936 97.454 9.934 C 97.44 9.936 97.427 9.94 97.418 9.951 C 97.389 9.974 97.363 10.002 97.342 10.031 C 97.342 10.031 97.342 10.031 97.342 10.031 L 92.732 16.391 C 92.73 16.391 92.73 16.393 92.73 16.393 C 92.696 16.433 92.677 16.482 92.672 16.533 C 92.674 16.563 92.687 16.59 92.71 16.607 C 92.719 16.613 92.728 16.617 92.737 16.622 L 92.737 16.622 L 92.737 16.622 L 92.737 16.622 L 92.737 16.622 L 92.737 16.622 L 92.737 16.622 L 92.737 16.622 L 92.737 16.622 L 92.737 16.622 L 92.737 16.622 L 92.737 16.622 L 92.737 16.622 L 92.737 16.622 Z  M 102.275 16.046 C 102.282 16.036 102.292 16.025 102.307 16.012 C 102.315 15.983 102.318 15.951 102.317 15.921 C 102.317 15.921 102.317 15.919 102.317 15.919 L 102.317 15.908 L 102.251 10.724 C 102.249 10.616 102.209 10.512 102.139 10.429 C 102.073 10.345 101.978 10.285 101.874 10.262 L 98.348 9.51 C 98.348 9.51 98.348 9.51 98.348 9.51 C 98.321 9.504 98.293 9.502 98.265 9.502 C 98.238 9.5 98.21 9.506 98.187 9.523 C 98.174 9.534 98.168 9.548 98.168 9.565 C 98.17 9.612 98.187 9.659 98.217 9.697 C 98.217 9.699 98.217 9.699 98.217 9.701 L 102.192 15.946 C 102.192 15.946 102.192 15.946 102.192 15.946 C 102.211 15.98 102.236 16.01 102.264 16.035 C 102.267 16.04 102.271 16.043 102.275 16.046 L 102.275 16.046 L 102.275 16.046 L 102.275 16.046 L 102.275 16.046 L 102.275 16.046 L 102.275 16.046 L 102.275 16.046 L 102.275 16.046 L 102.275 16.046 L 102.275 16.046 L 102.275 16.046 L 102.275 16.046 L 102.275 16.046 L 102.275 16.046 L 102.275 16.046 Z  M 106.859 16.303 L 106.859 16.303 C 106.877 16.38 106.916 16.452 106.972 16.51 C 107.05 16.586 107.154 16.63 107.264 16.63 L 111.053 16.641 L 107.239 12.064 C 107.239 12.064 107.239 12.064 107.239 12.064 C 107.203 12.016 107.158 11.975 107.107 11.942 C 107.075 11.918 107.039 11.903 106.999 11.901 C 106.953 11.906 106.912 11.933 106.893 11.975 C 106.868 12.033 106.854 12.094 106.85 12.156 L 106.851 12.158 L 106.851 16.215 L 106.851 16.215 C 106.851 16.239 106.854 16.269 106.859 16.303 L 106.859 16.303 L 106.859 16.303 L 106.859 16.303 L 106.859 16.303 L 106.859 16.303 L 106.859 16.303 L 106.859 16.303 L 106.859 16.303 L 106.859 16.303 L 106.859 16.303 L 106.859 16.303 L 106.859 16.303 L 106.859 16.303 L 106.859 16.303 L 106.859 16.303 L 106.859 16.303 L 106.859 16.303 Z  M 24.773 9.57 L 20.484 15.944 C 20.484 15.944 20.484 15.944 20.484 15.946 C 20.463 15.978 20.44 16.006 20.41 16.031 C 20.402 16.04 20.391 16.046 20.378 16.048 C 20.372 16.046 20.368 16.04 20.366 16.033 C 20.349 15.993 20.342 15.948 20.345 15.904 C 20.345 15.904 20.345 15.902 20.345 15.902 L 20.345 10.582 C 20.347 10.476 20.385 10.374 20.455 10.294 C 20.52 10.209 20.614 10.152 20.717 10.131 L 24.646 9.379 C 24.646 9.379 24.646 9.379 24.646 9.379 C 24.673 9.375 24.699 9.371 24.724 9.371 C 24.754 9.368 24.781 9.377 24.807 9.392 C 24.819 9.402 24.826 9.417 24.826 9.434 C 24.822 9.483 24.805 9.529 24.775 9.568 C 24.773 9.568 24.773 9.57 24.773 9.57 L 24.773 9.57 L 24.773 9.57 L 24.773 9.57 L 24.773 9.57 L 24.773 9.57 L 24.773 9.57 L 24.773 9.57 L 24.773 9.57 L 24.773 9.57 L 24.773 9.57 L 24.773 9.57 L 24.773 9.57 L 24.773 9.57 L 24.773 9.57 L 24.773 9.57 L 24.773 9.57 L 24.773 9.57 L 24.773 9.57 L 24.773 9.57 L 24.773 9.57 L 24.773 9.57 L 24.773 9.57 L 24.773 9.57 L 24.773 9.57 L 24.773 9.57 L 24.773 9.57 L 24.773 9.57 L 24.773 9.57 L 24.773 9.57 L 24.773 9.57 L 24.773 9.57 L 24.773 9.57 Z  M 46.381 9.515 L 41.777 15.864 C 41.777 15.866 41.777 15.866 41.777 15.866 C 41.756 15.896 41.73 15.923 41.7 15.946 C 41.692 15.955 41.679 15.961 41.664 15.963 C 41.656 15.961 41.65 15.955 41.645 15.946 C 41.628 15.906 41.622 15.862 41.624 15.817 C 41.624 15.817 41.624 15.815 41.624 15.815 L 41.624 9.462 C 41.624 9.462 41.624 9.462 41.624 9.462 C 41.624 9.368 41.662 9.277 41.728 9.21 C 41.796 9.144 41.887 9.106 41.98 9.106 L 41.993 9.106 L 46.247 9.244 C 46.249 9.244 46.249 9.244 46.252 9.244 C 46.302 9.241 46.355 9.256 46.398 9.286 C 46.423 9.307 46.438 9.337 46.44 9.371 C 46.436 9.421 46.417 9.472 46.383 9.512 C 46.383 9.515 46.383 9.515 46.381 9.515 L 46.381 9.515 L 46.381 9.515 L 46.381 9.515 L 46.381 9.515 L 46.381 9.515 L 46.381 9.515 L 46.381 9.515 L 46.381 9.515 L 46.381 9.515 L 46.381 9.515 L 46.381 9.515 L 46.381 9.515 L 46.381 9.515 L 46.381 9.515 L 46.381 9.515 L 46.381 9.515 L 46.381 9.515 L 46.381 9.515 L 46.381 9.515 L 46.381 9.515 L 46.381 9.515 L 46.381 9.515 L 46.381 9.515 L 46.381 9.515 L 46.381 9.515 L 46.381 9.515 L 46.381 9.515 L 46.381 9.515 L 46.381 9.515 L 46.381 9.515 L 46.381 9.515 L 46.381 9.515 L 46.381 9.515 L 46.381 9.515 L 46.381 9.515 L 46.381 9.515 L 46.381 9.515 L 46.381 9.515 L 46.381 9.515 L 46.381 9.515 Z  M 29.782 16.603 L 29.983 16.604 C 30.019 16.599 30.054 16.587 30.084 16.567 C 30.108 16.55 30.122 16.52 30.122 16.491 C 30.12 16.44 30.101 16.389 30.069 16.349 C 30.069 16.349 30.067 16.349 30.067 16.347 L 25.595 10.036 C 25.595 10.033 25.595 10.033 25.595 10.033 C 25.573 10.002 25.548 9.974 25.52 9.951 C 25.51 9.942 25.497 9.936 25.484 9.934 C 25.476 9.936 25.47 9.942 25.468 9.951 C 25.451 9.991 25.444 10.036 25.446 10.078 C 25.446 10.08 25.446 10.08 25.446 10.082 L 25.446 16.184 C 25.446 16.283 25.484 16.376 25.554 16.448 C 25.624 16.518 25.72 16.558 25.817 16.558 L 29.782 16.603 L 29.782 16.603 L 29.782 16.603 L 29.782 16.603 L 29.782 16.603 L 29.782 16.603 L 29.782 16.603 L 29.782 16.603 L 29.782 16.603 L 29.782 16.603 L 29.782 16.603 L 29.782 16.603 L 29.782 16.603 L 29.782 16.603 L 29.782 16.603 L 29.782 16.603 L 29.782 16.603 L 29.782 16.603 L 29.782 16.603 L 29.782 16.603 L 29.782 16.603 L 29.782 16.603 L 29.782 16.603 L 29.782 16.603 L 29.782 16.603 L 29.782 16.603 L 29.782 16.603 L 29.782 16.603 L 29.782 16.603 L 29.782 16.603 L 29.782 16.603 L 29.782 16.603 L 29.782 16.603 L 29.782 16.603 Z  M 35.656 9.366 L 30.982 15.948 C 30.982 15.951 30.982 15.951 30.982 15.951 C 30.961 15.982 30.936 16.01 30.908 16.033 C 30.898 16.042 30.885 16.048 30.87 16.05 C 30.862 16.048 30.853 16.042 30.851 16.033 C 30.834 15.991 30.826 15.948 30.828 15.904 C 30.828 15.904 30.828 15.902 30.828 15.902 L 30.724 9.58 L 30.724 9.574 C 30.724 9.476 30.762 9.381 30.832 9.313 C 30.9 9.244 30.993 9.203 31.088 9.201 C 31.088 9.201 31.088 9.201 31.088 9.201 L 35.521 9.112 L 35.531 9.112 C 35.533 9.112 35.533 9.112 35.533 9.112 C 35.584 9.11 35.633 9.123 35.675 9.148 C 35.699 9.165 35.711 9.193 35.711 9.222 C 35.709 9.275 35.69 9.324 35.658 9.362 C 35.656 9.364 35.656 9.364 35.656 9.366 L 35.656 9.366 L 35.656 9.366 L 35.656 9.366 L 35.656 9.366 L 35.656 9.366 L 35.656 9.366 L 35.656 9.366 L 35.656 9.366 L 35.656 9.366 L 35.656 9.366 L 35.656 9.366 L 35.656 9.366 L 35.656 9.366 L 35.656 9.366 L 35.656 9.366 L 35.656 9.366 L 35.656 9.366 L 35.656 9.366 L 35.656 9.366 L 35.656 9.366 L 35.656 9.366 L 35.656 9.366 L 35.656 9.366 L 35.656 9.366 L 35.656 9.366 L 35.656 9.366 L 35.656 9.366 L 35.656 9.366 L 35.656 9.366 L 35.656 9.366 L 35.656 9.366 L 35.656 9.366 L 35.656 9.366 L 35.656 9.366 L 35.656 9.366 L 35.656 9.366 Z  M 33.026 16.608 L 35.581 16.612 C 35.638 16.597 35.689 16.566 35.73 16.525 C 35.8 16.455 35.838 16.361 35.838 16.266 C 35.838 16.266 35.838 16.266 35.838 16.266 L 35.838 10.082 C 35.838 10.08 35.838 10.08 35.838 10.078 C 35.84 10.036 35.834 9.991 35.817 9.951 C 35.815 9.942 35.809 9.936 35.8 9.934 C 35.788 9.936 35.775 9.942 35.766 9.951 C 35.737 9.976 35.713 10.004 35.692 10.033 C 35.692 10.033 35.692 10.036 35.69 10.036 L 31.268 16.325 C 31.268 16.325 31.268 16.325 31.268 16.328 C 31.236 16.368 31.217 16.416 31.213 16.469 C 31.213 16.501 31.23 16.531 31.255 16.552 C 31.3 16.58 31.351 16.594 31.404 16.592 C 31.404 16.592 31.406 16.592 31.406 16.592 L 33.026 16.608 L 33.026 16.608 L 33.026 16.608 L 33.026 16.608 L 33.026 16.608 L 33.026 16.608 L 33.026 16.608 L 33.026 16.608 L 33.026 16.608 L 33.026 16.608 L 33.026 16.608 L 33.026 16.608 L 33.026 16.608 L 33.026 16.608 L 33.026 16.608 L 33.026 16.608 L 33.026 16.608 L 33.026 16.608 L 33.026 16.608 L 33.026 16.608 L 33.026 16.608 L 33.026 16.608 L 33.026 16.608 L 33.026 16.608 L 33.026 16.608 L 33.026 16.608 L 33.026 16.608 L 33.026 16.608 L 33.026 16.608 L 33.026 16.608 L 33.026 16.608 L 33.026 16.608 L 33.026 16.608 L 33.026 16.608 L 33.026 16.608 L 33.026 16.608 L 33.026 16.608 Z  M 20.817 16.705 L 20.817 16.705 L 20.815 16.705 L 20.819 16.705 C 20.819 16.705 20.817 16.705 20.817 16.705 L 20.817 16.705 L 20.817 16.705 L 20.817 16.705 L 20.817 16.705 L 20.817 16.705 L 20.817 16.705 L 20.817 16.705 L 20.817 16.705 L 20.817 16.705 L 20.817 16.705 L 20.817 16.705 L 20.817 16.705 L 20.817 16.705 L 20.817 16.705 L 20.817 16.705 L 20.817 16.705 L 20.817 16.705 L 20.817 16.705 L 20.817 16.705 L 20.817 16.705 L 20.817 16.705 L 20.817 16.705 L 20.817 16.705 L 20.817 16.705 L 20.817 16.705 L 20.817 16.705 L 20.817 16.705 L 20.817 16.705 L 20.817 16.705 L 20.817 16.705 L 20.817 16.705 L 20.817 16.705 L 20.817 16.705 Z  M 19.887 15.832 L 16.058 11.601 C 16.056 11.601 16.056 11.601 16.056 11.598 C 16.012 11.556 15.986 11.499 15.982 11.438 C 15.982 11.399 15.997 11.366 16.022 11.338 C 16.058 11.302 16.105 11.274 16.156 11.264 C 16.156 11.264 16.156 11.264 16.158 11.264 L 19.737 10.292 C 19.737 10.292 19.737 10.292 19.737 10.292 C 19.766 10.285 19.796 10.281 19.826 10.281 C 19.893 10.279 19.959 10.307 20.006 10.353 C 20.054 10.408 20.08 10.48 20.078 10.552 C 20.078 10.554 20.078 10.554 20.078 10.554 L 20.078 15.758 C 20.078 15.758 20.078 15.76 20.078 15.76 C 20.082 15.807 20.071 15.853 20.052 15.893 C 20.046 15.908 20.031 15.917 20.016 15.919 C 19.999 15.917 19.98 15.91 19.968 15.902 C 19.938 15.883 19.91 15.86 19.887 15.832 C 19.887 15.832 19.887 15.832 19.887 15.832 L 19.887 15.832 L 19.887 15.832 L 19.887 15.832 L 19.887 15.832 L 19.887 15.832 L 19.887 15.832 L 19.887 15.832 L 19.887 15.832 L 19.887 15.832 L 19.887 15.832 L 19.887 15.832 L 19.887 15.832 L 19.887 15.832 L 19.887 15.832 L 19.887 15.832 L 19.887 15.832 L 19.887 15.832 L 19.887 15.832 L 19.887 15.832 L 19.887 15.832 L 19.887 15.832 L 19.887 15.832 L 19.887 15.832 L 19.887 15.832 L 19.887 15.832 L 19.887 15.832 L 19.887 15.832 L 19.887 15.832 L 19.887 15.832 L 19.887 15.832 L 19.887 15.832 Z  M 11.964 16.576 L 15.099 16.58 C 15.177 16.569 15.251 16.533 15.308 16.476 C 15.378 16.408 15.416 16.313 15.416 16.215 C 15.416 16.215 15.416 16.215 15.416 16.215 L 15.416 11.861 C 15.416 11.859 15.416 11.859 15.416 11.857 C 15.419 11.812 15.41 11.766 15.389 11.726 C 15.383 11.711 15.368 11.7 15.351 11.7 C 15.334 11.7 15.315 11.707 15.3 11.717 C 15.27 11.734 15.245 11.757 15.222 11.783 C 15.219 11.783 15.219 11.783 15.219 11.785 L 10.978 16.351 C 10.978 16.351 10.978 16.353 10.978 16.353 C 10.954 16.376 10.935 16.404 10.92 16.433 C 10.91 16.45 10.906 16.469 10.903 16.491 C 10.906 16.512 10.916 16.531 10.935 16.544 C 10.978 16.567 11.024 16.577 11.073 16.573 C 11.073 16.573 11.075 16.573 11.075 16.573 L 11.964 16.576 L 11.964 16.576 L 11.964 16.576 L 11.964 16.576 L 11.964 16.576 L 11.964 16.576 L 11.964 16.576 L 11.964 16.576 L 11.964 16.576 L 11.964 16.576 L 11.964 16.576 L 11.964 16.576 L 11.964 16.576 L 11.964 16.576 L 11.964 16.576 L 11.964 16.576 L 11.964 16.576 L 11.964 16.576 L 11.964 16.576 L 11.964 16.576 L 11.964 16.576 L 11.964 16.576 L 11.964 16.576 L 11.964 16.576 L 11.964 16.576 L 11.964 16.576 L 11.964 16.576 L 11.964 16.576 L 11.964 16.576 Z  M 81.224 16.018 L 76.552 9.504 C 76.552 9.504 76.55 9.504 76.55 9.502 C 76.518 9.462 76.499 9.413 76.494 9.36 C 76.494 9.328 76.509 9.299 76.535 9.28 C 76.579 9.25 76.63 9.235 76.683 9.237 C 76.683 9.237 76.685 9.237 76.685 9.237 L 80.925 9.172 L 80.931 9.172 C 81.027 9.172 81.12 9.21 81.19 9.277 C 81.257 9.347 81.298 9.438 81.3 9.536 C 81.3 9.536 81.3 9.536 81.3 9.536 L 81.37 15.97 L 81.37 15.978 C 81.37 15.978 81.37 15.98 81.37 15.98 C 81.372 16.023 81.365 16.065 81.348 16.103 C 81.346 16.112 81.34 16.116 81.334 16.118 C 81.321 16.116 81.308 16.109 81.298 16.101 C 81.27 16.078 81.245 16.05 81.224 16.018 C 81.224 16.018 81.224 16.018 81.224 16.018 L 81.224 16.018 L 81.224 16.018 L 81.224 16.018 L 81.224 16.018 L 81.224 16.018 L 81.224 16.018 L 81.224 16.018 L 81.224 16.018 Z  M 91.81 16.621 L 87.345 16.614 C 87.282 16.599 87.225 16.566 87.179 16.52 C 87.109 16.45 87.071 16.355 87.071 16.258 L 87.071 10.082 C 87.071 10.08 87.071 10.08 87.071 10.078 C 87.069 10.036 87.075 9.991 87.092 9.951 C 87.096 9.942 87.103 9.936 87.111 9.934 C 87.126 9.934 87.139 9.94 87.149 9.951 C 87.177 9.974 87.202 10 87.223 10.031 C 87.223 10.031 87.223 10.031 87.223 10.031 L 91.838 16.378 C 91.838 16.378 91.84 16.378 91.84 16.38 C 91.874 16.421 91.893 16.469 91.895 16.52 C 91.895 16.552 91.88 16.58 91.857 16.599 C 91.842 16.608 91.826 16.616 91.81 16.621 L 91.81 16.621 L 91.81 16.621 L 91.81 16.621 L 91.81 16.621 L 91.81 16.621 L 91.81 16.621 L 91.81 16.621 L 91.81 16.621 L 91.81 16.621 L 91.81 16.621 Z  M 41.11 15.853 L 36.442 9.417 C 36.44 9.417 36.44 9.415 36.44 9.415 C 36.406 9.375 36.387 9.326 36.385 9.273 C 36.385 9.244 36.4 9.214 36.423 9.195 C 36.467 9.167 36.518 9.155 36.571 9.157 C 36.571 9.157 36.573 9.157 36.573 9.157 L 40.891 9.14 L 40.894 9.14 C 40.991 9.14 41.084 9.18 41.154 9.248 C 41.224 9.318 41.262 9.411 41.262 9.508 C 41.262 9.508 41.262 9.508 41.262 9.508 L 41.262 9.738 L 41.262 15.804 C 41.262 15.804 41.262 15.807 41.262 15.807 C 41.264 15.851 41.258 15.896 41.241 15.936 C 41.237 15.944 41.23 15.951 41.222 15.953 C 41.207 15.951 41.194 15.944 41.186 15.936 C 41.156 15.912 41.131 15.885 41.11 15.855 C 41.11 15.855 41.11 15.855 41.11 15.853 L 41.11 15.853 L 41.11 15.853 L 41.11 15.853 L 41.11 15.853 L 41.11 15.853 L 41.11 15.853 L 41.11 15.853 L 41.11 15.853 L 41.11 15.853 L 41.11 15.853 L 41.11 15.853 L 41.11 15.853 L 41.11 15.853 L 41.11 15.853 L 41.11 15.853 L 41.11 15.853 L 41.11 15.853 L 41.11 15.853 L 41.11 15.853 L 41.11 15.853 L 41.11 15.853 L 41.11 15.853 L 41.11 15.853 L 41.11 15.853 L 41.11 15.853 L 41.11 15.853 L 41.11 15.853 L 41.11 15.853 L 41.11 15.853 L 41.11 15.853 L 41.11 15.853 L 41.11 15.853 L 41.11 15.853 L 41.11 15.853 L 41.11 15.853 L 41.11 15.853 L 41.11 15.853 L 41.11 15.853 L 41.11 15.853 Z  M 51.97 10.465 L 55.273 11.402 C 55.273 11.404 55.273 11.404 55.276 11.404 C 55.326 11.416 55.375 11.444 55.411 11.482 C 55.439 11.514 55.453 11.552 55.453 11.594 C 55.451 11.656 55.426 11.713 55.386 11.757 C 55.386 11.759 55.386 11.759 55.384 11.759 L 51.906 15.972 C 51.906 15.972 51.906 15.972 51.906 15.972 C 51.883 16.001 51.857 16.025 51.828 16.046 C 51.815 16.056 51.798 16.063 51.781 16.063 C 51.768 16.061 51.756 16.052 51.749 16.042 C 51.73 15.999 51.722 15.955 51.724 15.91 C 51.724 15.91 51.724 15.908 51.724 15.908 L 51.635 10.722 L 51.635 10.713 C 51.635 10.713 51.635 10.713 51.635 10.713 C 51.633 10.641 51.658 10.573 51.705 10.521 C 51.749 10.476 51.811 10.451 51.874 10.451 C 51.906 10.451 51.938 10.455 51.968 10.465 C 51.968 10.465 51.97 10.465 51.97 10.465 L 51.97 10.465 L 51.97 10.465 L 51.97 10.465 L 51.97 10.465 L 51.97 10.465 L 51.97 10.465 L 51.97 10.465 L 51.97 10.465 L 51.97 10.465 L 51.97 10.465 L 51.97 10.465 L 51.97 10.465 L 51.97 10.465 L 51.97 10.465 L 51.97 10.465 L 51.97 10.465 L 51.97 10.465 L 51.97 10.465 L 51.97 10.465 L 51.97 10.465 L 51.97 10.465 L 51.97 10.465 L 51.97 10.465 L 51.97 10.465 L 51.97 10.465 L 51.97 10.465 L 51.97 10.465 L 51.97 10.465 L 51.97 10.465 L 51.97 10.465 L 51.97 10.465 L 51.97 10.465 L 51.97 10.465 L 51.97 10.465 L 51.97 10.465 L 51.97 10.465 L 51.97 10.465 L 51.97 10.465 L 51.97 10.465 L 51.97 10.465 L 51.97 10.465 L 51.97 10.465 L 51.97 10.465 L 51.97 10.465 Z  M 43.636 16.625 L 41.869 16.622 C 41.86 16.618 41.851 16.613 41.842 16.607 C 41.819 16.59 41.806 16.563 41.804 16.533 C 41.808 16.482 41.828 16.433 41.861 16.393 C 41.861 16.393 41.861 16.391 41.864 16.391 L 46.474 10.031 C 46.474 10.031 46.474 10.031 46.474 10.031 C 46.495 10.002 46.521 9.974 46.55 9.951 C 46.559 9.94 46.571 9.936 46.586 9.934 C 46.595 9.936 46.601 9.942 46.605 9.951 C 46.622 9.991 46.629 10.036 46.626 10.078 C 46.626 10.08 46.626 10.08 46.626 10.082 L 46.626 16.217 C 46.626 16.317 46.588 16.412 46.518 16.482 C 46.449 16.552 46.353 16.592 46.256 16.592 L 43.636 16.625 L 43.636 16.625 L 43.636 16.625 L 43.636 16.625 L 43.636 16.625 L 43.636 16.625 L 43.636 16.625 L 43.636 16.625 L 43.636 16.625 L 43.636 16.625 L 43.636 16.625 L 43.636 16.625 L 43.636 16.625 L 43.636 16.625 L 43.636 16.625 L 43.636 16.625 L 43.636 16.625 L 43.636 16.625 L 43.636 16.625 L 43.636 16.625 L 43.636 16.625 L 43.636 16.625 L 43.636 16.625 L 43.636 16.625 L 43.636 16.625 L 43.636 16.625 L 43.636 16.625 L 43.636 16.625 L 43.636 16.625 L 43.636 16.625 L 43.636 16.625 L 43.636 16.625 L 43.636 16.625 L 43.636 16.625 L 43.636 16.625 L 43.636 16.625 L 43.636 16.625 L 43.636 16.625 L 43.636 16.625 L 43.636 16.625 L 43.636 16.625 Z  M 15.748 16.581 L 19.881 16.588 C 19.882 16.586 19.883 16.584 19.883 16.582 C 19.881 16.563 19.877 16.541 19.866 16.525 C 19.851 16.495 19.832 16.467 19.811 16.444 C 19.811 16.442 19.811 16.442 19.811 16.442 L 15.764 11.899 C 15.764 11.899 15.764 11.899 15.764 11.899 C 15.74 11.872 15.715 11.848 15.685 11.829 C 15.671 11.819 15.654 11.812 15.637 11.812 C 15.622 11.815 15.607 11.823 15.601 11.836 C 15.582 11.878 15.573 11.923 15.575 11.969 C 15.575 11.969 15.575 11.971 15.575 11.971 L 15.575 16.266 C 15.575 16.364 15.613 16.459 15.683 16.529 C 15.703 16.549 15.725 16.566 15.748 16.581 L 15.748 16.581 L 15.748 16.581 L 15.748 16.581 L 15.748 16.581 L 15.748 16.581 L 15.748 16.581 L 15.748 16.581 L 15.748 16.581 L 15.748 16.581 L 15.748 16.581 L 15.748 16.581 L 15.748 16.581 L 15.748 16.581 L 15.748 16.581 L 15.748 16.581 L 15.748 16.581 L 15.748 16.581 L 15.748 16.581 L 15.748 16.581 L 15.748 16.581 L 15.748 16.581 L 15.748 16.581 L 15.748 16.581 L 15.748 16.581 L 15.748 16.581 L 15.748 16.581 L 15.748 16.581 L 15.748 16.581 L 15.748 16.581 Z  M 55.983 16.215 L 55.983 16.217 L 55.983 16.217 L 55.983 16.217 L 55.983 16.217 L 55.983 16.217 L 55.983 16.217 L 55.983 16.217 C 55.983 16.246 55.986 16.275 55.99 16.303 L 55.99 16.303 C 56.009 16.38 56.048 16.452 56.104 16.51 C 56.182 16.586 56.286 16.63 56.396 16.63 L 59.958 16.64 C 60.083 16.641 60.12 16.563 60.04 16.467 L 56.37 12.064 C 56.37 12.064 56.37 12.064 56.37 12.064 C 56.334 12.016 56.29 11.975 56.239 11.942 C 56.207 11.918 56.171 11.903 56.131 11.901 C 56.085 11.906 56.044 11.933 56.025 11.975 C 56 12.033 55.985 12.094 55.983 12.157 L 55.983 12.158 L 55.983 12.204 L 55.983 12.204 L 55.983 16.215 L 55.983 16.215 L 55.983 16.215 L 55.983 16.215 L 55.983 16.215 L 55.983 16.215 L 55.983 16.215 L 55.983 16.215 L 55.983 16.215 L 55.983 16.215 L 55.983 16.215 L 55.983 16.215 L 55.983 16.215 L 55.983 16.215 L 55.983 16.215 L 55.983 16.215 L 55.983 16.215 L 55.983 16.215 L 55.983 16.215 L 55.983 16.215 L 55.983 16.215 L 55.983 16.215 L 55.983 16.215 L 55.983 16.215 L 55.983 16.215 L 55.983 16.215 L 55.983 16.215 L 55.983 16.215 L 55.983 16.215 L 55.983 16.215 L 55.983 16.215 L 55.983 16.215 L 55.983 16.215 L 55.983 16.215 L 55.983 16.215 L 55.983 16.215 L 55.983 16.215 L 55.983 16.215 L 55.983 16.215 L 55.983 16.215 L 55.983 16.215 L 55.983 16.215 L 55.983 16.215 L 55.983 16.215 L 55.983 16.215 L 55.983 16.215 Z  M 30.355 16.018 L 25.684 9.504 C 25.684 9.504 25.681 9.504 25.681 9.502 C 25.65 9.462 25.631 9.413 25.626 9.36 C 25.626 9.328 25.641 9.299 25.667 9.28 C 25.711 9.25 25.762 9.235 25.815 9.237 C 25.815 9.237 25.817 9.237 25.817 9.237 L 30.057 9.172 L 30.063 9.172 C 30.158 9.172 30.252 9.21 30.322 9.277 C 30.389 9.347 30.43 9.438 30.432 9.536 C 30.432 9.536 30.432 9.536 30.432 9.536 L 30.502 15.97 L 30.502 15.978 C 30.502 15.978 30.502 15.98 30.502 15.98 C 30.504 16.023 30.497 16.065 30.48 16.103 C 30.478 16.112 30.472 16.116 30.466 16.118 C 30.453 16.116 30.44 16.109 30.43 16.101 C 30.402 16.078 30.377 16.05 30.355 16.018 C 30.355 16.018 30.355 16.018 30.355 16.018 L 30.355 16.018 L 30.355 16.018 L 30.355 16.018 L 30.355 16.018 L 30.355 16.018 L 30.355 16.018 L 30.355 16.018 L 30.355 16.018 L 30.355 16.018 L 30.355 16.018 L 30.355 16.018 L 30.355 16.018 L 30.355 16.018 L 30.355 16.018 L 30.355 16.018 L 30.355 16.018 L 30.355 16.018 L 30.355 16.018 L 30.355 16.018 L 30.355 16.018 L 30.355 16.018 L 30.355 16.018 L 30.355 16.018 L 30.355 16.018 L 30.355 16.018 L 30.355 16.018 L 30.355 16.018 L 30.355 16.018 L 30.355 16.018 L 30.355 16.018 L 30.355 16.018 L 30.355 16.018 L 30.355 16.018 L 30.355 16.018 L 30.355 16.018 Z  M 51.438 16.012 C 51.424 16.025 51.413 16.036 51.407 16.046 C 51.403 16.043 51.399 16.04 51.396 16.035 C 51.368 16.01 51.343 15.98 51.324 15.946 C 51.324 15.946 51.324 15.946 51.324 15.946 L 47.349 9.701 C 47.349 9.699 47.349 9.699 47.349 9.697 C 47.319 9.659 47.302 9.612 47.3 9.565 C 47.3 9.548 47.306 9.534 47.319 9.523 C 47.342 9.506 47.37 9.5 47.397 9.502 C 47.425 9.502 47.452 9.504 47.48 9.51 C 47.48 9.51 47.48 9.51 47.48 9.51 L 51.006 10.262 C 51.11 10.285 51.205 10.345 51.271 10.429 C 51.341 10.512 51.381 10.616 51.383 10.724 L 51.449 15.908 L 51.449 15.919 C 51.449 15.919 51.449 15.921 51.449 15.921 C 51.45 15.951 51.447 15.983 51.438 16.012 L 51.438 16.012 L 51.438 16.012 L 51.438 16.012 L 51.438 16.012 L 51.438 16.012 L 51.438 16.012 L 51.438 16.012 L 51.438 16.012 L 51.438 16.012 L 51.438 16.012 L 51.438 16.012 L 51.438 16.012 L 51.438 16.012 L 51.438 16.012 L 51.438 16.012 L 51.438 16.012 L 51.438 16.012 L 51.438 16.012 L 51.438 16.012 L 51.438 16.012 L 51.438 16.012 L 51.438 16.012 L 51.438 16.012 L 51.438 16.012 L 51.438 16.012 L 51.438 16.012 L 51.438 16.012 L 51.438 16.012 L 51.438 16.012 L 51.438 16.012 L 51.438 16.012 L 51.438 16.012 L 51.438 16.012 L 51.438 16.012 L 51.438 16.012 L 51.438 16.012 L 51.438 16.012 L 51.438 16.012 L 51.438 16.012 L 51.438 16.012 L 51.438 16.012 L 51.438 16.012 Z  M 50.907 16.58 L 47.281 16.63 L 47.274 16.63 C 47.179 16.63 47.088 16.592 47.02 16.525 C 46.953 16.457 46.914 16.366 46.914 16.27 L 46.914 16.266 L 46.984 10.082 C 46.984 10.082 46.984 10.08 46.984 10.08 C 46.982 10.036 46.989 9.993 47.006 9.953 C 47.006 9.947 47.01 9.94 47.016 9.938 C 47.027 9.942 47.037 9.947 47.046 9.955 C 47.073 9.981 47.097 10.01 47.116 10.044 C 47.116 10.044 47.116 10.044 47.118 10.044 L 51.059 16.296 C 51.059 16.296 51.061 16.298 51.061 16.298 C 51.089 16.338 51.106 16.387 51.108 16.438 C 51.108 16.476 51.091 16.51 51.063 16.533 C 51.017 16.565 50.964 16.582 50.909 16.58 C 50.909 16.58 50.907 16.58 50.907 16.58 L 50.907 16.58 L 50.907 16.58 L 50.907 16.58 L 50.907 16.58 L 50.907 16.58 L 50.907 16.58 L 50.907 16.58 L 50.907 16.58 L 50.907 16.58 L 50.907 16.58 L 50.907 16.58 L 50.907 16.58 L 50.907 16.58 L 50.907 16.58 L 50.907 16.58 L 50.907 16.58 L 50.907 16.58 L 50.907 16.58 L 50.907 16.58 L 50.907 16.58 L 50.907 16.58 L 50.907 16.58 L 50.907 16.58 L 50.907 16.58 L 50.907 16.58 L 50.907 16.58 L 50.907 16.58 L 50.907 16.58 L 50.907 16.58 L 50.907 16.58 L 50.907 16.58 L 50.907 16.58 L 50.907 16.58 L 50.907 16.58 L 50.907 16.58 L 50.907 16.58 L 50.907 16.58 L 50.907 16.58 L 50.907 16.58 L 50.907 16.58 L 50.907 16.58 L 50.907 16.58 Z  M 102.948 16.33 L 106.381 12.062 C 106.381 12.062 106.381 12.06 106.381 12.06 C 106.413 12.02 106.451 11.982 106.493 11.952 C 106.512 11.935 106.538 11.927 106.563 11.925 C 106.584 11.927 106.603 11.939 106.612 11.961 C 106.637 12.016 106.648 12.077 106.643 12.136 C 106.643 12.136 106.643 12.139 106.643 12.139 L 106.643 12.158 L 106.563 16.228 C 106.563 16.228 106.563 16.228 106.563 16.228 C 106.561 16.325 106.521 16.419 106.451 16.488 C 106.381 16.556 106.286 16.597 106.186 16.597 L 106.184 16.597 L 103.064 16.575 C 103.064 16.575 103.062 16.575 103.062 16.575 C 103.011 16.577 102.963 16.567 102.918 16.539 C 102.897 16.525 102.884 16.499 102.882 16.474 C 102.886 16.421 102.91 16.37 102.946 16.332 C 102.946 16.332 102.946 16.33 102.948 16.33 L 102.948 16.33 L 102.948 16.33 L 102.948 16.33 L 102.948 16.33 L 102.948 16.33 L 102.948 16.33 L 102.948 16.33 L 102.948 16.33 L 102.948 16.33 L 102.948 16.33 L 102.948 16.33 L 102.948 16.33 L 102.948 16.33 L 102.948 16.33 L 102.948 16.33 L 102.948 16.33 L 102.948 16.33 L 102.948 16.33 Z  M 102.838 10.465 L 106.142 11.402 C 106.142 11.404 106.142 11.404 106.144 11.404 C 106.194 11.416 106.243 11.444 106.279 11.482 C 106.307 11.514 106.322 11.552 106.322 11.594 C 106.319 11.656 106.294 11.713 106.254 11.757 C 106.254 11.759 106.254 11.759 106.252 11.759 L 102.774 15.972 C 102.774 15.972 102.774 15.972 102.774 15.972 C 102.751 16.001 102.726 16.025 102.696 16.046 C 102.683 16.056 102.666 16.063 102.649 16.063 C 102.637 16.061 102.624 16.052 102.618 16.042 C 102.598 15.999 102.59 15.955 102.592 15.91 C 102.592 15.91 102.592 15.908 102.592 15.908 L 102.503 10.722 L 102.503 10.713 C 102.503 10.713 102.503 10.713 102.503 10.713 C 102.501 10.641 102.526 10.573 102.573 10.521 C 102.618 10.476 102.679 10.451 102.742 10.451 C 102.774 10.451 102.806 10.455 102.836 10.465 C 102.836 10.465 102.838 10.465 102.838 10.465 L 102.838 10.465 L 102.838 10.465 L 102.838 10.465 L 102.838 10.465 L 102.838 10.465 L 102.838 10.465 L 102.838 10.465 L 102.838 10.465 L 102.838 10.465 L 102.838 10.465 L 102.838 10.465 L 102.838 10.465 L 102.838 10.465 L 102.838 10.465 L 102.838 10.465 L 102.838 10.465 L 102.838 10.465 Z  M 101.775 16.58 L 98.149 16.63 L 98.143 16.63 C 98.047 16.63 97.956 16.592 97.888 16.525 C 97.821 16.457 97.783 16.366 97.783 16.27 L 97.783 16.266 L 97.852 10.082 C 97.852 10.082 97.852 10.08 97.852 10.08 C 97.85 10.036 97.857 9.993 97.874 9.953 C 97.874 9.947 97.878 9.94 97.884 9.938 C 97.895 9.942 97.905 9.947 97.914 9.955 C 97.941 9.981 97.965 10.01 97.984 10.044 C 97.984 10.044 97.984 10.044 97.986 10.044 L 101.927 16.296 C 101.927 16.296 101.929 16.298 101.929 16.298 C 101.957 16.338 101.974 16.387 101.976 16.438 C 101.976 16.476 101.959 16.51 101.931 16.533 C 101.885 16.565 101.832 16.582 101.777 16.58 C 101.777 16.58 101.775 16.58 101.775 16.58 L 101.775 16.58 L 101.775 16.58 L 101.775 16.58 L 101.775 16.58 L 101.775 16.58 L 101.775 16.58 L 101.775 16.58 L 101.775 16.58 L 101.775 16.58 L 101.775 16.58 L 101.775 16.58 L 101.775 16.58 L 101.775 16.58 L 101.775 16.58 L 101.775 16.58 Z  M 97.249 9.515 L 92.645 15.864 C 92.645 15.866 92.645 15.866 92.645 15.866 C 92.624 15.896 92.598 15.923 92.569 15.946 C 92.56 15.955 92.547 15.961 92.533 15.963 C 92.524 15.961 92.518 15.955 92.514 15.946 C 92.497 15.906 92.49 15.862 92.492 15.817 C 92.492 15.817 92.492 15.815 92.492 15.815 L 92.492 9.462 C 92.492 9.462 92.492 9.462 92.492 9.462 C 92.492 9.368 92.53 9.277 92.596 9.21 C 92.664 9.144 92.755 9.106 92.848 9.106 L 92.861 9.106 L 97.115 9.244 C 97.118 9.244 97.118 9.244 97.12 9.244 C 97.171 9.241 97.223 9.256 97.266 9.286 C 97.291 9.307 97.306 9.337 97.308 9.371 C 97.304 9.421 97.285 9.472 97.251 9.512 C 97.251 9.515 97.251 9.515 97.249 9.515 L 97.249 9.515 L 97.249 9.515 L 97.249 9.515 L 97.249 9.515 L 97.249 9.515 L 97.249 9.515 L 97.249 9.515 L 97.249 9.515 L 97.249 9.515 L 97.249 9.515 L 97.249 9.515 L 97.249 9.515 L 97.249 9.515 Z  M 91.978 15.853 L 87.31 9.417 C 87.308 9.417 87.308 9.415 87.308 9.415 C 87.274 9.375 87.255 9.326 87.253 9.273 C 87.253 9.244 87.268 9.214 87.291 9.195 C 87.335 9.167 87.386 9.155 87.439 9.157 C 87.439 9.157 87.441 9.157 87.441 9.157 L 91.76 9.14 L 91.762 9.14 C 91.859 9.14 91.952 9.18 92.022 9.248 C 92.092 9.318 92.13 9.411 92.13 9.508 C 92.13 9.508 92.13 9.508 92.13 9.508 L 92.13 15.804 C 92.13 15.804 92.13 15.807 92.13 15.807 C 92.132 15.851 92.126 15.896 92.109 15.936 C 92.105 15.944 92.098 15.951 92.09 15.953 C 92.075 15.951 92.062 15.944 92.054 15.936 C 92.024 15.912 91.999 15.885 91.978 15.855 C 91.978 15.855 91.978 15.855 91.978 15.853 L 91.978 15.853 L 91.978 15.853 L 91.978 15.853 L 91.978 15.853 L 91.978 15.853 L 91.978 15.853 L 91.978 15.853 L 91.978 15.853 L 91.978 15.853 L 91.978 15.853 L 91.978 15.853 L 91.978 15.853 Z  M 86.524 9.366 L 81.85 15.948 C 81.85 15.951 81.85 15.951 81.85 15.951 C 81.829 15.982 81.804 16.01 81.776 16.033 C 81.766 16.042 81.753 16.048 81.738 16.05 C 81.73 16.048 81.721 16.042 81.719 16.033 C 81.702 15.991 81.694 15.948 81.696 15.904 C 81.696 15.904 81.696 15.902 81.696 15.902 L 81.592 9.58 L 81.592 9.574 C 81.592 9.476 81.63 9.381 81.7 9.313 C 81.768 9.244 81.861 9.203 81.956 9.201 C 81.956 9.201 81.956 9.201 81.956 9.201 L 86.389 9.112 L 86.399 9.112 C 86.402 9.112 86.402 9.112 86.402 9.112 C 86.452 9.11 86.501 9.123 86.543 9.148 C 86.567 9.165 86.579 9.193 86.579 9.222 C 86.577 9.275 86.558 9.324 86.526 9.362 C 86.524 9.364 86.524 9.364 86.524 9.366 L 86.524 9.366 L 86.524 9.366 L 86.524 9.366 L 86.524 9.366 L 86.524 9.366 L 86.524 9.366 L 86.524 9.366 L 86.524 9.366 L 86.524 9.366 Z  M 71.685 16.705 L 71.685 16.705 L 71.683 16.705 L 71.687 16.705 C 71.687 16.705 71.685 16.705 71.685 16.705 L 71.685 16.705 L 71.685 16.705 L 71.685 16.705 L 71.685 16.705 L 71.685 16.705 L 71.685 16.705 Z  M 70.755 15.832 L 66.926 11.601 C 66.924 11.601 66.924 11.601 66.924 11.598 C 66.88 11.556 66.854 11.499 66.85 11.438 C 66.85 11.399 66.865 11.366 66.89 11.338 C 66.926 11.302 66.973 11.274 67.024 11.264 C 67.024 11.264 67.024 11.264 67.026 11.264 L 70.605 10.292 C 70.605 10.292 70.605 10.292 70.605 10.292 C 70.635 10.285 70.664 10.281 70.694 10.281 C 70.762 10.279 70.827 10.307 70.874 10.353 C 70.923 10.408 70.948 10.48 70.946 10.552 C 70.946 10.554 70.946 10.554 70.946 10.554 L 70.946 15.758 C 70.946 15.758 70.946 15.76 70.946 15.76 C 70.95 15.807 70.939 15.853 70.92 15.893 C 70.914 15.908 70.899 15.917 70.884 15.919 C 70.867 15.917 70.848 15.91 70.836 15.902 C 70.806 15.883 70.779 15.86 70.755 15.832 C 70.755 15.832 70.755 15.832 70.755 15.832 L 70.755 15.832 L 70.755 15.832 L 70.755 15.832 L 70.755 15.832 Z " fill-rule="evenodd" fill="rgb(0,48,87)"/><path d=" M 65.049 28.587 L 69.425 28.587 L 69.425 30.227 L 62.929 30.227 L 62.929 22.091 L 69.264 22.091 L 69.264 23.731 L 65.049 23.731 L 65.049 25.382 L 68.402 25.382 L 68.402 26.923 L 65.049 26.923 L 65.049 28.587 Z  M 77.831 22.091 L 77.831 26.911 L 77.831 26.911 Q 77.831 28.624 76.919 29.487 L 76.919 29.487 L 76.919 29.487 Q 76.007 30.35 74.195 30.35 L 74.195 30.35 L 74.195 30.35 Q 72.395 30.35 71.477 29.487 L 71.477 29.487 L 71.477 29.487 Q 70.559 28.624 70.559 26.911 L 70.559 26.911 L 70.559 22.091 L 72.691 22.091 L 72.691 26.948 L 72.691 26.948 Q 72.691 27.823 73.061 28.255 L 73.061 28.255 L 73.061 28.255 Q 73.431 28.686 74.195 28.686 L 74.195 28.686 L 74.195 28.686 Q 75.723 28.686 75.723 26.948 L 75.723 26.948 L 75.723 22.091 L 77.831 22.091 Z  M 84.586 30.227 L 82.848 27.256 L 81.578 27.256 L 81.578 30.227 L 79.495 30.227 L 79.495 22.091 L 83.378 22.091 L 83.378 22.091 Q 84.857 22.091 85.652 22.757 L 85.652 22.757 L 85.652 22.757 Q 86.447 23.423 86.447 24.68 L 86.447 24.68 L 86.447 24.68 Q 86.447 25.567 86.04 26.159 L 86.04 26.159 L 86.04 26.159 Q 85.634 26.751 84.857 27.034 L 84.857 27.034 L 86.928 30.227 L 84.586 30.227 Z  M 81.578 23.694 L 81.578 25.752 L 83.02 25.752 L 83.02 25.752 Q 83.698 25.752 84.007 25.506 L 84.007 25.506 L 84.007 25.506 Q 84.315 25.259 84.315 24.717 L 84.315 24.717 L 84.315 24.717 Q 84.315 24.187 84.007 23.94 L 84.007 23.94 L 84.007 23.94 Q 83.698 23.694 83.02 23.694 L 83.02 23.694 L 81.578 23.694 Z  M 91.563 21.968 L 91.563 21.968 Q 92.795 21.968 93.689 22.467 L 93.689 22.467 L 93.689 22.467 Q 94.582 22.967 95.063 23.91 L 95.063 23.91 L 95.063 23.91 Q 95.544 24.852 95.544 26.159 L 95.544 26.159 L 95.544 26.159 Q 95.544 27.466 95.063 28.409 L 95.063 28.409 L 95.063 28.409 Q 94.582 29.352 93.689 29.851 L 93.689 29.851 L 93.689 29.851 Q 92.795 30.35 91.563 30.35 L 91.563 30.35 L 91.563 30.35 Q 90.33 30.35 89.43 29.851 L 89.43 29.851 L 89.43 29.851 Q 88.53 29.352 88.05 28.409 L 88.05 28.409 L 88.05 28.409 Q 87.569 27.466 87.569 26.159 L 87.569 26.159 L 87.569 26.159 Q 87.569 24.852 88.05 23.91 L 88.05 23.91 L 88.05 23.91 Q 88.53 22.967 89.43 22.467 L 89.43 22.467 L 89.43 22.467 Q 90.33 21.968 91.563 21.968 L 91.563 21.968 Z  M 91.563 23.632 L 91.563 23.632 Q 90.675 23.632 90.207 24.273 L 90.207 24.273 L 90.207 24.273 Q 89.738 24.914 89.738 26.159 L 89.738 26.159 L 89.738 26.159 Q 89.738 27.404 90.207 28.045 L 90.207 28.045 L 90.207 28.045 Q 90.675 28.686 91.563 28.686 L 91.563 28.686 L 91.563 28.686 Q 92.45 28.686 92.912 28.045 L 92.912 28.045 L 92.912 28.045 Q 93.374 27.404 93.374 26.159 L 93.374 26.159 L 93.374 26.159 Q 93.374 24.914 92.912 24.273 L 92.912 24.273 L 92.912 24.273 Q 92.45 23.632 91.563 23.632 L 91.563 23.632 Z  M 100.733 22.091 L 100.733 22.091 Q 102.249 22.091 103.063 22.788 L 103.063 22.788 L 103.063 22.788 Q 103.876 23.484 103.876 24.791 L 103.876 24.791 L 103.876 24.791 Q 103.876 26.036 103.063 26.72 L 103.063 26.72 L 103.063 26.72 Q 102.249 27.404 100.733 27.404 L 100.733 27.404 L 99.118 27.404 L 99.118 30.227 L 96.998 30.227 L 96.998 22.091 L 100.733 22.091 Z  M 100.4 25.851 L 100.4 25.851 Q 101.091 25.851 101.417 25.586 L 101.417 25.586 L 101.417 25.586 Q 101.744 25.321 101.744 24.766 L 101.744 24.766 L 101.744 24.766 Q 101.744 24.224 101.417 23.959 L 101.417 23.959 L 101.417 23.959 Q 101.091 23.694 100.4 23.694 L 100.4 23.694 L 99.118 23.694 L 99.118 25.851 L 100.4 25.851 Z  M 107.352 28.587 L 111.728 28.587 L 111.728 30.227 L 105.232 30.227 L 105.232 22.091 L 111.568 22.091 L 111.568 23.731 L 107.352 23.731 L 107.352 25.382 L 110.705 25.382 L 110.705 26.923 L 107.352 26.923 L 107.352 28.587 Z  M 16.484 23.731 L 12.28 23.731 L 12.28 25.456 L 15.633 25.456 L 15.633 27.096 L 12.28 27.096 L 12.28 30.227 L 10.16 30.227 L 10.16 22.091 L 16.484 22.091 L 16.484 23.731 Z  M 21.291 21.968 L 21.291 21.968 Q 22.523 21.968 23.417 22.467 L 23.417 22.467 L 23.417 22.467 Q 24.311 22.967 24.791 23.91 L 24.791 23.91 L 24.791 23.91 Q 25.272 24.852 25.272 26.159 L 25.272 26.159 L 25.272 26.159 Q 25.272 27.466 24.791 28.409 L 24.791 28.409 L 24.791 28.409 Q 24.311 29.352 23.417 29.851 L 23.417 29.851 L 23.417 29.851 Q 22.523 30.35 21.291 30.35 L 21.291 30.35 L 21.291 30.35 Q 20.058 30.35 19.158 29.851 L 19.158 29.851 L 19.158 29.851 Q 18.259 29.352 17.778 28.409 L 17.778 28.409 L 17.778 28.409 Q 17.297 27.466 17.297 26.159 L 17.297 26.159 L 17.297 26.159 Q 17.297 24.852 17.778 23.91 L 17.778 23.91 L 17.778 23.91 Q 18.259 22.967 19.158 22.467 L 19.158 22.467 L 19.158 22.467 Q 20.058 21.968 21.291 21.968 L 21.291 21.968 Z  M 21.291 23.632 L 21.291 23.632 Q 20.403 23.632 19.935 24.273 L 19.935 24.273 L 19.935 24.273 Q 19.467 24.914 19.467 26.159 L 19.467 26.159 L 19.467 26.159 Q 19.467 27.404 19.935 28.045 L 19.935 28.045 L 19.935 28.045 Q 20.403 28.686 21.291 28.686 L 21.291 28.686 L 21.291 28.686 Q 22.178 28.686 22.641 28.045 L 22.641 28.045 L 22.641 28.045 Q 23.103 27.404 23.103 26.159 L 23.103 26.159 L 23.103 26.159 Q 23.103 24.914 22.641 24.273 L 22.641 24.273 L 22.641 24.273 Q 22.178 23.632 21.291 23.632 L 21.291 23.632 Z  M 29.833 21.968 L 29.833 21.968 Q 30.992 21.968 31.811 22.313 L 31.811 22.313 L 31.811 22.313 Q 32.631 22.658 33.334 23.435 L 33.334 23.435 L 32.138 24.815 L 32.138 24.815 Q 31.731 24.199 31.183 23.91 L 31.183 23.91 L 31.183 23.91 Q 30.634 23.62 29.87 23.62 L 29.87 23.62 L 29.87 23.62 Q 29.229 23.62 28.884 23.842 L 28.884 23.842 L 28.884 23.842 Q 28.539 24.064 28.539 24.433 L 28.539 24.433 L 28.539 24.433 Q 28.539 24.742 28.902 24.933 L 28.902 24.933 L 28.902 24.933 Q 29.266 25.124 30.141 25.284 L 30.141 25.284 L 30.141 25.284 Q 31.83 25.592 32.551 26.184 L 32.551 26.184 L 32.551 26.184 Q 33.272 26.775 33.272 27.848 L 33.272 27.848 L 33.272 27.848 Q 33.272 28.624 32.828 29.191 L 32.828 29.191 L 32.828 29.191 Q 32.384 29.758 31.602 30.054 L 31.602 30.054 L 31.602 30.054 Q 30.819 30.35 29.833 30.35 L 29.833 30.35 L 29.833 30.35 Q 28.452 30.35 27.59 30.011 L 27.59 30.011 L 27.59 30.011 Q 26.727 29.672 26.098 28.969 L 26.098 28.969 L 27.183 27.49 L 27.183 27.49 Q 27.663 28.156 28.267 28.427 L 28.267 28.427 L 28.267 28.427 Q 28.871 28.698 29.722 28.698 L 29.722 28.698 L 29.722 28.698 Q 30.4 28.698 30.739 28.507 L 30.739 28.507 L 30.739 28.507 Q 31.078 28.316 31.078 27.959 L 31.078 27.959 L 31.078 27.959 Q 31.078 27.675 30.714 27.496 L 30.714 27.496 L 30.714 27.496 Q 30.351 27.318 29.5 27.157 L 29.5 27.157 L 29.5 27.157 Q 28.452 26.948 27.768 26.658 L 27.768 26.658 L 27.768 26.658 Q 27.084 26.369 26.708 25.876 L 26.708 25.876 L 26.708 25.876 Q 26.332 25.382 26.332 24.618 L 26.332 24.618 L 26.332 24.618 Q 26.332 23.854 26.745 23.25 L 26.745 23.25 L 26.745 23.25 Q 27.158 22.646 27.953 22.307 L 27.953 22.307 L 27.953 22.307 Q 28.748 21.968 29.833 21.968 L 29.833 21.968 Z  M 37.771 21.968 L 37.771 21.968 Q 38.93 21.968 39.749 22.313 L 39.749 22.313 L 39.749 22.313 Q 40.569 22.658 41.272 23.435 L 41.272 23.435 L 40.076 24.815 L 40.076 24.815 Q 39.669 24.199 39.121 23.91 L 39.121 23.91 L 39.121 23.91 Q 38.572 23.62 37.808 23.62 L 37.808 23.62 L 37.808 23.62 Q 37.167 23.62 36.822 23.842 L 36.822 23.842 L 36.822 23.842 Q 36.477 24.064 36.477 24.433 L 36.477 24.433 L 36.477 24.433 Q 36.477 24.742 36.84 24.933 L 36.84 24.933 L 36.84 24.933 Q 37.204 25.124 38.079 25.284 L 38.079 25.284 L 38.079 25.284 Q 39.768 25.592 40.489 26.184 L 40.489 26.184 L 40.489 26.184 Q 41.21 26.775 41.21 27.848 L 41.21 27.848 L 41.21 27.848 Q 41.21 28.624 40.766 29.191 L 40.766 29.191 L 40.766 29.191 Q 40.322 29.758 39.54 30.054 L 39.54 30.054 L 39.54 30.054 Q 38.757 30.35 37.771 30.35 L 37.771 30.35 L 37.771 30.35 Q 36.39 30.35 35.528 30.011 L 35.528 30.011 L 35.528 30.011 Q 34.665 29.672 34.036 28.969 L 34.036 28.969 L 35.121 27.49 L 35.121 27.49 Q 35.602 28.156 36.206 28.427 L 36.206 28.427 L 36.206 28.427 Q 36.81 28.698 37.66 28.698 L 37.66 28.698 L 37.66 28.698 Q 38.338 28.698 38.677 28.507 L 38.677 28.507 L 38.677 28.507 Q 39.016 28.316 39.016 27.959 L 39.016 27.959 L 39.016 27.959 Q 39.016 27.675 38.652 27.496 L 38.652 27.496 L 38.652 27.496 Q 38.289 27.318 37.438 27.157 L 37.438 27.157 L 37.438 27.157 Q 36.39 26.948 35.706 26.658 L 35.706 26.658 L 35.706 26.658 Q 35.022 26.369 34.646 25.876 L 34.646 25.876 L 34.646 25.876 Q 34.27 25.382 34.27 24.618 L 34.27 24.618 L 34.27 24.618 Q 34.27 23.854 34.683 23.25 L 34.683 23.25 L 34.683 23.25 Q 35.096 22.646 35.891 22.307 L 35.891 22.307 L 35.891 22.307 Q 36.686 21.968 37.771 21.968 L 37.771 21.968 Z  M 49.247 26.985 L 49.247 28.439 L 48.002 28.439 L 48.002 30.227 L 46.128 30.227 L 46.128 28.439 L 42.036 28.439 L 42.036 27.441 L 45.524 22.091 L 48.002 22.091 L 48.002 26.985 L 49.247 26.985 Z  M 45.438 24.815 L 44.008 26.985 L 46.128 26.985 L 46.128 24.815 L 46.177 23.484 L 46.153 23.484 L 46.153 23.484 Q 45.931 24.039 45.438 24.815 L 45.438 24.815 Z  M 53.968 25.826 L 57.789 25.826 L 57.789 30.227 L 56.31 30.227 L 56.248 29.265 L 56.248 29.265 Q 55.545 30.35 53.918 30.35 L 53.918 30.35 L 53.918 30.35 Q 52.809 30.35 51.952 29.863 L 51.952 29.863 L 51.952 29.863 Q 51.096 29.376 50.615 28.433 L 50.615 28.433 L 50.615 28.433 Q 50.134 27.49 50.134 26.171 L 50.134 26.171 L 50.134 26.171 Q 50.134 24.865 50.627 23.922 L 50.627 23.922 L 50.627 23.922 Q 51.12 22.979 52.032 22.474 L 52.032 22.474 L 52.032 22.474 Q 52.945 21.968 54.189 21.968 L 54.189 21.968 L 54.189 21.968 Q 55.582 21.968 56.433 22.461 L 56.433 22.461 L 56.433 22.461 Q 57.283 22.954 57.776 24.051 L 57.776 24.051 L 55.817 24.828 L 55.817 24.828 Q 55.669 24.224 55.262 23.928 L 55.262 23.928 L 55.262 23.928 Q 54.855 23.632 54.251 23.632 L 54.251 23.632 L 54.251 23.632 Q 53.314 23.632 52.815 24.273 L 52.815 24.273 L 52.815 24.273 Q 52.316 24.914 52.316 26.159 L 52.316 26.159 L 52.316 26.159 Q 52.316 28.723 54.313 28.723 L 54.313 28.723 L 54.313 28.723 Q 55.065 28.723 55.527 28.378 L 55.527 28.378 L 55.527 28.378 Q 55.989 28.033 55.989 27.379 L 55.989 27.379 L 55.989 27.256 L 53.968 27.256 L 53.968 25.826 Z " fill="rgb(0,48,87)"/><path d=" M 89.315 40.914 L 89.315 39.878 L 89.315 39.878 Q 90.888 38.898 91.59 38.14 L 91.59 38.14 L 91.59 38.14 Q 92.292 37.381 92.292 36.712 L 92.292 36.712 L 92.292 36.712 Q 92.292 36.335 92.076 36.105 L 92.076 36.105 L 92.076 36.105 Q 91.859 35.874 91.454 35.874 L 91.454 35.874 L 91.454 35.874 Q 91.011 35.874 90.761 36.199 L 90.761 36.199 L 90.761 36.199 Q 90.512 36.524 90.502 37.146 L 90.502 37.146 L 89.117 36.722 L 89.117 36.722 Q 89.136 35.714 89.81 35.158 L 89.81 35.158 L 89.81 35.158 Q 90.483 34.602 91.557 34.602 L 91.557 34.602 L 91.557 34.602 Q 92.339 34.602 92.867 34.889 L 92.867 34.889 L 92.867 34.889 Q 93.395 35.177 93.649 35.629 L 93.649 35.629 L 93.649 35.629 Q 93.903 36.081 93.903 36.599 L 93.903 36.599 L 93.903 36.599 Q 93.903 37.475 93.249 38.21 L 93.249 38.21 L 93.249 38.21 Q 92.594 38.945 91.265 39.708 L 91.265 39.708 L 91.265 39.718 L 91.265 39.718 Q 91.887 39.68 92.518 39.68 L 92.518 39.68 L 93.979 39.68 L 93.979 40.914 L 89.315 40.914 Z  M 97.399 41.008 L 97.399 41.008 Q 94.817 41.008 94.817 37.805 L 94.817 37.805 L 94.817 37.805 Q 94.817 34.602 97.399 34.602 L 97.399 34.602 L 97.399 34.602 Q 99.98 34.602 99.98 37.805 L 99.98 37.805 L 99.98 37.805 Q 99.98 41.008 97.399 41.008 L 97.399 41.008 Z  M 97.399 39.746 L 97.399 39.746 Q 97.917 39.746 98.148 39.294 L 98.148 39.294 L 98.148 39.294 Q 98.378 38.841 98.378 37.805 L 98.378 37.805 L 98.378 37.805 Q 98.378 36.769 98.148 36.317 L 98.148 36.317 L 98.148 36.317 Q 97.917 35.864 97.399 35.864 L 97.399 35.864 L 97.399 35.864 Q 96.88 35.864 96.65 36.317 L 96.65 36.317 L 96.65 36.317 Q 96.419 36.769 96.419 37.805 L 96.419 37.805 L 96.419 37.805 Q 96.419 38.841 96.65 39.294 L 96.65 39.294 L 96.65 39.294 Q 96.88 39.746 97.399 39.746 L 97.399 39.746 Z  M 100.998 40.914 L 100.998 39.878 L 100.998 39.878 Q 102.571 38.898 103.273 38.14 L 103.273 38.14 L 103.273 38.14 Q 103.975 37.381 103.975 36.712 L 103.975 36.712 L 103.975 36.712 Q 103.975 36.335 103.758 36.105 L 103.758 36.105 L 103.758 36.105 Q 103.541 35.874 103.136 35.874 L 103.136 35.874 L 103.136 35.874 Q 102.693 35.874 102.444 36.199 L 102.444 36.199 L 102.444 36.199 Q 102.194 36.524 102.185 37.146 L 102.185 37.146 L 100.8 36.722 L 100.8 36.722 Q 100.819 35.714 101.492 35.158 L 101.492 35.158 L 101.492 35.158 Q 102.166 34.602 103.24 34.602 L 103.24 34.602 L 103.24 34.602 Q 104.022 34.602 104.549 34.889 L 104.549 34.889 L 104.549 34.889 Q 105.077 35.177 105.331 35.629 L 105.331 35.629 L 105.331 35.629 Q 105.586 36.081 105.586 36.599 L 105.586 36.599 L 105.586 36.599 Q 105.586 37.475 104.931 38.21 L 104.931 38.21 L 104.931 38.21 Q 104.276 38.945 102.948 39.708 L 102.948 39.708 L 102.948 39.718 L 102.948 39.718 Q 103.57 39.68 104.201 39.68 L 104.201 39.68 L 105.661 39.68 L 105.661 40.914 L 100.998 40.914 Z  M 109.081 41.008 L 109.081 41.008 Q 106.5 41.008 106.5 37.805 L 106.5 37.805 L 106.5 37.805 Q 106.5 34.602 109.081 34.602 L 109.081 34.602 L 109.081 34.602 Q 111.662 34.602 111.662 37.805 L 111.662 37.805 L 111.662 37.805 Q 111.662 41.008 109.081 41.008 L 109.081 41.008 Z  M 109.081 39.746 L 109.081 39.746 Q 109.599 39.746 109.83 39.294 L 109.83 39.294 L 109.83 39.294 Q 110.061 38.841 110.061 37.805 L 110.061 37.805 L 110.061 37.805 Q 110.061 36.769 109.83 36.317 L 109.83 36.317 L 109.83 36.317 Q 109.599 35.864 109.081 35.864 L 109.081 35.864 L 109.081 35.864 Q 108.563 35.864 108.332 36.317 L 108.332 36.317 L 108.332 36.317 Q 108.101 36.769 108.101 37.805 L 108.101 37.805 L 108.101 37.805 Q 108.101 38.841 108.332 39.294 L 108.332 39.294 L 108.332 39.294 Q 108.563 39.746 109.081 39.746 L 109.081 39.746 Z  M 44.244 34.696 L 42.039 40.914 L 40.136 40.914 L 37.922 34.696 L 39.627 34.696 L 40.767 38.455 L 41.106 39.68 L 41.436 38.474 L 42.595 34.696 L 44.244 34.696 Z  M 48.295 40.914 L 47.871 39.51 L 45.723 39.51 L 45.289 40.914 L 43.659 40.914 L 45.845 34.696 L 47.786 34.696 L 49.962 40.914 L 48.295 40.914 Z  M 46.062 38.408 L 47.532 38.408 L 47.079 36.92 L 46.806 35.94 L 46.787 35.94 L 46.533 36.91 L 46.062 38.408 Z  M 52.308 39.661 L 55.427 39.661 L 55.427 40.914 L 50.688 40.914 L 50.688 34.696 L 52.308 34.696 L 52.308 39.661 Z  M 63.557 34.696 L 63.557 40.914 L 62.125 40.914 L 62.125 38.06 L 62.172 36.147 L 62.153 36.147 L 60.618 40.914 L 59.308 40.914 L 57.773 36.147 L 57.754 36.147 L 57.801 38.06 L 57.801 40.914 L 56.359 40.914 L 56.359 34.696 L 58.668 34.696 L 59.647 37.862 L 59.996 39.181 L 60.015 39.181 L 60.373 37.871 L 61.343 34.696 L 63.557 34.696 Z  M 66.553 34.696 L 66.553 40.914 L 64.933 40.914 L 64.933 34.696 L 66.553 34.696 Z  M 69.549 39.661 L 72.894 39.661 L 72.894 40.914 L 67.929 40.914 L 67.929 34.696 L 72.771 34.696 L 72.771 35.949 L 69.549 35.949 L 69.549 37.212 L 72.112 37.212 L 72.112 38.389 L 69.549 38.389 L 69.549 39.661 Z  M 77.765 40.914 L 76.436 38.644 L 75.466 38.644 L 75.466 40.914 L 73.874 40.914 L 73.874 34.696 L 76.841 34.696 L 76.841 34.696 Q 77.972 34.696 78.58 35.205 L 78.58 35.205 L 78.58 35.205 Q 79.187 35.714 79.187 36.675 L 79.187 36.675 L 79.187 36.675 Q 79.187 37.353 78.876 37.805 L 78.876 37.805 L 78.876 37.805 Q 78.565 38.257 77.972 38.474 L 77.972 38.474 L 79.555 40.914 L 77.765 40.914 Z  M 75.466 35.921 L 75.466 37.494 L 76.568 37.494 L 76.568 37.494 Q 77.086 37.494 77.322 37.306 L 77.322 37.306 L 77.322 37.306 Q 77.557 37.117 77.557 36.703 L 77.557 36.703 L 77.557 36.703 Q 77.557 36.298 77.322 36.109 L 77.322 36.109 L 77.322 36.109 Q 77.086 35.921 76.568 35.921 L 76.568 35.921 L 75.466 35.921 Z  M 84.35 40.914 L 83.926 39.51 L 81.778 39.51 L 81.345 40.914 L 79.715 40.914 L 81.901 34.696 L 83.841 34.696 L 86.018 40.914 L 84.35 40.914 Z  M 82.117 38.408 L 83.587 38.408 L 83.135 36.92 L 82.862 35.94 L 82.843 35.94 L 82.588 36.91 L 82.117 38.408 Z " fill="rgb(237,176,0)"/><path d=" M 13.241 32.778 C 13.162 32.778 13.087 32.788 13.047 32.805 C 12.986 32.83 12.78 33.059 12.441 33.478 C 11.171 35.046 10.379 36.027 10.305 36.126 C 10.111 36.384 10.067 36.907 10.205 37.32 C 10.35 37.757 10.509 37.976 11.613 39.263 C 12.972 40.847 13.835 41.655 14.103 41.595 C 14.129 41.589 14.707 41.094 15.389 40.496 L 16.629 39.407 Q 17.5 42.087 19.614 42.14 C 21.727 42.193 28.103 39.369 31.858 38.409 C 35.613 37.45 39.1 40.994 39.1 40.928 C 39.1 40.777 38.001 37.134 36.203 36.126 C 35.054 35.482 33.884 35.436 32.582 35.466 C 31.346 35.495 30.25 35.892 29.167 36.216 C 26.722 37.092 24.401 37.84 23.169 38.244 C 21.936 38.649 20.309 38.666 19.835 38.409 C 19.755 38.366 19.689 38.321 19.689 38.309 C 19.689 38.297 19.827 38.264 19.997 38.234 C 20.341 38.173 20.446 38.114 20.474 37.961 C 20.496 37.845 20.422 37.088 20.211 35.265 C 20.03 33.703 20.041 33.773 19.959 33.697 C 19.9 33.642 19.85 33.635 19.504 33.635 C 18.869 33.635 18.264 33.767 17.725 34.022 C 17.393 34.179 17.24 34.193 16.794 34.11 C 16.107 33.983 15.419 33.725 14.267 33.165 C 13.61 32.845 13.477 32.791 13.321 32.78 C 13.295 32.778 13.268 32.777 13.241 32.778 L 13.241 32.778 Z  M 12.955 33.606 C 12.98 33.606 13.077 33.72 13.17 33.858 C 13.518 34.377 14.355 35.366 15.538 36.658 C 15.969 37.129 16.367 37.567 16.422 37.631 C 16.529 37.754 16.53 37.761 16.603 38.602 L 16.622 38.817 L 15.337 39.947 C 14.63 40.568 14.034 41.077 14.012 41.077 C 13.991 41.077 13.893 41.01 13.794 40.928 C 13.364 40.567 12.329 39.44 11.331 38.244 C 10.693 37.48 10.576 37.259 10.573 36.818 C 10.572 36.613 10.585 36.517 10.624 36.449 C 10.652 36.398 11.026 35.926 11.454 35.399 C 11.882 34.873 12.384 34.254 12.571 34.023 C 12.757 33.793 12.93 33.605 12.955 33.606 L 12.955 33.606 Z  M 19.623 34.057 L 19.641 34.192 C 19.722 34.774 20.027 37.532 20.027 37.677 L 20.027 37.776 L 19.666 37.846 C 18.621 38.049 17.68 38.496 17.235 39.002 C 17.104 39.151 17.058 39.17 17.032 39.086 C 16.994 38.96 16.889 37.878 16.862 37.325 C 16.815 36.365 16.877 35.646 17.045 35.188 C 17.249 34.638 18.252 34.147 19.315 34.077 L 19.623 34.057 Z " fill="rgb(0,48,87)" vector-effect="non-scaling-stroke" stroke-width="0.2" stroke="rgb(0,48,87)" stroke-linejoin="miter" stroke-linecap="butt" stroke-miterlimit="4"/><mask id="_mask_xYB0Dhc6ral4ckQz275ge2P2QsLnef74" x="-200%" y="-200%" width="400%" height="400%"><rect x="-200%" y="-200%" width="400%" height="400%" style="fill:white;"/><path d=" M 13.794 40.928 C 13.364 40.567 12.329 39.44 11.331 38.244 C 10.693 37.48 10.576 37.259 10.573 36.818 C 10.572 36.613 10.585 36.517 10.624 36.449 C 10.652 36.398 11.026 35.926 11.454 35.399 C 11.882 34.873 12.384 34.254 12.57 34.023 C 12.757 33.793 12.929 33.605 12.955 33.606 C 12.98 33.606 13.077 33.72 13.17 33.858 C 13.518 34.377 14.355 35.366 15.538 36.658 C 15.969 37.129 16.367 37.567 16.422 37.631 C 16.529 37.754 16.53 37.761 16.603 38.602 L 16.622 38.817 L 15.337 39.947 C 14.63 40.568 14.034 41.077 14.012 41.077 C 13.991 41.077 13.893 41.01 13.794 40.928 L 13.794 40.928 Z " fill="black" stroke="none"/></mask><path d=" M 13.794 40.928 C 13.364 40.567 12.329 39.44 11.331 38.244 C 10.693 37.48 10.576 37.259 10.573 36.818 C 10.572 36.613 10.585 36.517 10.624 36.449 C 10.652 36.398 11.026 35.926 11.454 35.399 C 11.882 34.873 12.384 34.254 12.57 34.023 C 12.757 33.793 12.929 33.605 12.955 33.606 C 12.98 33.606 13.077 33.72 13.17 33.858 C 13.518 34.377 14.355 35.366 15.538 36.658 C 15.969 37.129 16.367 37.567 16.422 37.631 C 16.529 37.754 16.53 37.761 16.603 38.602 L 16.622 38.817 L 15.337 39.947 C 14.63 40.568 14.034 41.077 14.012 41.077 C 13.991 41.077 13.893 41.01 13.794 40.928 L 13.794 40.928 Z " fill="rgb(237,176,0)" mask="url(#_mask_xYB0Dhc6ral4ckQz275ge2P2QsLnef74)" vector-effect="non-scaling-stroke" stroke-width="0.4" stroke="rgb(0,48,87)" stroke-linejoin="miter" stroke-linecap="butt" stroke-miterlimit="4"/><path d=" M 13.794 40.928 C 13.364 40.567 12.329 39.44 11.331 38.244 C 10.693 37.48 10.576 37.259 10.573 36.818 C 10.572 36.613 10.585 36.517 10.624 36.449 C 10.652 36.398 11.026 35.926 11.454 35.399 C 11.882 34.873 12.384 34.254 12.57 34.023 C 12.757 33.793 12.929 33.605 12.955 33.606 C 12.98 33.606 13.077 33.72 13.17 33.858 C 13.518 34.377 14.355 35.366 15.538 36.658 C 15.969 37.129 16.367 37.567 16.422 37.631 C 16.529 37.754 16.53 37.761 16.603 38.602 L 16.622 38.817 L 15.337 39.947 C 14.63 40.568 14.034 41.077 14.012 41.077 C 13.991 41.077 13.893 41.01 13.794 40.928 L 13.794 40.928 Z " fill="rgb(237,176,0)"/><mask id="_mask_iRs5Io9wJP4WLN73t25kTanw6x1Tqslq" x="-200%" y="-200%" width="400%" height="400%"><rect x="-200%" y="-200%" width="400%" height="400%" style="fill:white;"/><path d=" M 17.032 39.086 C 16.994 38.96 16.889 37.878 16.862 37.325 C 16.815 36.365 16.877 35.646 17.045 35.188 C 17.249 34.638 18.252 34.147 19.315 34.077 L 19.622 34.057 L 19.641 34.192 C 19.722 34.774 20.027 37.532 20.027 37.677 L 20.027 37.776 L 19.666 37.846 C 18.621 38.049 17.68 38.496 17.235 39.002 C 17.104 39.151 17.058 39.17 17.032 39.086 L 17.032 39.086 Z " fill="black" stroke="none"/></mask><path d=" M 17.032 39.086 C 16.994 38.96 16.889 37.878 16.862 37.325 C 16.815 36.365 16.877 35.646 17.045 35.188 C 17.249 34.638 18.252 34.147 19.315 34.077 L 19.622 34.057 L 19.641 34.192 C 19.722 34.774 20.027 37.532 20.027 37.677 L 20.027 37.776 L 19.666 37.846 C 18.621 38.049 17.68 38.496 17.235 39.002 C 17.104 39.151 17.058 39.17 17.032 39.086 L 17.032 39.086 Z " fill="rgb(69,163,114)" mask="url(#_mask_iRs5Io9wJP4WLN73t25kTanw6x1Tqslq)" vector-effect="non-scaling-stroke" stroke-width="0.4" stroke="rgb(0,48,87)" stroke-linejoin="miter" stroke-linecap="butt" stroke-miterlimit="4"/><path d=" M 17.032 39.086 C 16.994 38.96 16.889 37.878 16.862 37.325 C 16.815 36.365 16.877 35.646 17.045 35.188 C 17.249 34.638 18.252 34.147 19.315 34.077 L 19.622 34.057 L 19.641 34.192 C 19.722 34.774 20.027 37.532 20.027 37.677 L 20.027 37.776 L 19.666 37.846 C 18.621 38.049 17.68 38.496 17.235 39.002 C 17.104 39.151 17.058 39.17 17.032 39.086 L 17.032 39.086 Z " fill="rgb(69,163,114)"/></g></svg>